<svg id="visual" viewBox="0 0 900 600" width="900" height="600" xmlns="http://www.w3.org/2000/svg" xmlns:xlink="http://www.w3.org/1999/xlink" version="1.1"><path d="M0 118L21.5 135C43 152 86 186 128.8 186.3C171.7 186.7 214.3 153.3 257.2 160.2C300 167 343 214 385.8 213.7C428.7 213.3 471.3 165.7 514.2 165.2C557 164.7 600 211.3 642.8 207.5C685.7 203.7 728.3 149.3 771.2 123.7C814 98 857 101 878.5 102.5L900 104L900 601L878.5 601C857 601 814 601 771.2 601C728.3 601 685.7 601 642.8 601C600 601 557 601 514.2 601C471.3 601 428.7 601 385.8 601C343 601 300 601 257.2 601C214.3 601 171.7 601 128.8 601C86 601 43 601 21.5 601L0 601Z" fill="#3a7582"></path><path d="M0 212L21.5 227.2C43 242.3 86 272.7 128.8 286.5C171.7 300.3 214.3 297.7 257.2 298.8C300 300 343 305 385.8 301C428.7 297 471.3 284 514.2 263.7C557 243.3 600 215.7 642.8 219C685.7 222.3 728.3 256.7 771.2 274.7C814 292.7 857 294.3 878.5 295.2L900 296L900 601L878.5 601C857 601 814 601 771.2 601C728.3 601 685.7 601 642.8 601C600 601 557 601 514.2 601C471.3 601 428.7 601 385.8 601C343 601 300 601 257.2 601C214.3 601 171.7 601 128.8 601C86 601 43 601 21.5 601L0 601Z" fill="#4b828f"></path><path d="M0 219L21.5 233C43 247 86 275 128.8 281.7C171.7 288.3 214.3 273.7 257.2 262.7C300 251.7 343 244.3 385.8 259C428.7 273.7 471.3 310.3 514.2 314.7C557 319 600 291 642.8 287.7C685.7 284.3 728.3 305.7 771.2 315.3C814 325 857 323 878.5 322L900 321L900 601L878.5 601C857 601 814 601 771.2 601C728.3 601 685.7 601 642.8 601C600 601 557 601 514.2 601C471.3 601 428.7 601 385.8 601C343 601 300 601 257.2 601C214.3 601 171.7 601 128.8 601C86 601 43 601 21.5 601L0 601Z" fill="#5c909c"></path><path d="M0 379L21.5 362.8C43 346.7 86 314.3 128.8 298.8C171.7 283.3 214.3 284.7 257.2 296.7C300 308.7 343 331.3 385.8 349.3C428.7 367.3 471.3 380.7 514.2 375.2C557 369.7 600 345.3 642.8 332C685.7 318.7 728.3 316.3 771.2 311.3C814 306.3 857 298.7 878.5 294.8L900 291L900 601L878.5 601C857 601 814 601 771.2 601C728.3 601 685.7 601 642.8 601C600 601 557 601 514.2 601C471.3 601 428.7 601 385.8 601C343 601 300 601 257.2 601C214.3 601 171.7 601 128.8 601C86 601 43 601 21.5 601L0 601Z" fill="#6d9ea9"></path><path d="M0 382L21.5 380.7C43 379.3 86 376.7 128.8 375.7C171.7 374.7 214.3 375.3 257.2 381.2C300 387 343 398 385.8 390.3C428.7 382.7 471.3 356.3 514.2 350.8C557 345.3 600 360.7 642.8 371C685.7 381.3 728.3 386.7 771.2 386.3C814 386 857 380 878.5 377L900 374L900 601L878.5 601C857 601 814 601 771.2 601C728.3 601 685.7 601 642.8 601C600 601 557 601 514.2 601C471.3 601 428.7 601 385.8 601C343 601 300 601 257.2 601C214.3 601 171.7 601 128.8 601C86 601 43 601 21.5 601L0 601Z" fill="#7dacb7"></path><path d="M0 430L21.5 424.5C43 419 86 408 128.8 401.7C171.7 395.3 214.3 393.7 257.2 402.3C300 411 343 430 385.8 432.5C428.7 435 471.3 421 514.2 425.8C557 430.7 600 454.3 642.8 463.2C685.7 472 728.3 466 771.2 460.3C814 454.7 857 449.3 878.5 446.7L900 444L900 601L878.5 601C857 601 814 601 771.2 601C728.3 601 685.7 601 642.8 601C600 601 557 601 514.2 601C471.3 601 428.7 601 385.8 601C343 601 300 601 257.2 601C214.3 601 171.7 601 128.8 601C86 601 43 601 21.5 601L0 601Z" fill="#8ebac4"></path><path d="M0 477L21.5 476.7C43 476.3 86 475.7 128.8 476.2C171.7 476.7 214.3 478.3 257.2 485.5C300 492.7 343 505.3 385.8 505.8C428.7 506.3 471.3 494.7 514.2 491.7C557 488.7 600 494.3 642.8 499.8C685.7 505.3 728.3 510.7 771.2 505.2C814 499.7 857 483.3 878.5 475.2L900 467L900 601L878.5 601C857 601 814 601 771.2 601C728.3 601 685.7 601 642.8 601C600 601 557 601 514.2 601C471.3 601 428.7 601 385.8 601C343 601 300 601 257.2 601C214.3 601 171.7 601 128.8 601C86 601 43 601 21.5 601L0 601Z" fill="#9ec8d2"></path><path d="M0 550L21.5 547.7C43 545.3 86 540.7 128.8 536.5C171.7 532.3 214.3 528.7 257.2 529.8C300 531 343 537 385.8 535.8C428.7 534.7 471.3 526.3 514.2 521.8C557 517.3 600 516.7 642.8 518.3C685.7 520 728.3 524 771.2 530.5C814 537 857 546 878.5 550.5L900 555L900 601L878.5 601C857 601 814 601 771.2 601C728.3 601 685.7 601 642.8 601C600 601 557 601 514.2 601C471.3 601 428.7 601 385.8 601C343 601 300 601 257.2 601C214.3 601 171.7 601 128.8 601C86 601 43 601 21.5 601L0 601Z" fill="#afd7e0"></path></svg>