<svg id="visual" viewBox="0 0 900 600" width="900" height="600" xmlns="http://www.w3.org/2000/svg" xmlns:xlink="http://www.w3.org/1999/xlink" version="1.1"><path d="M0 249L21.5 255.2C43 261.3 86 273.7 128.8 286.8C171.7 300 214.3 314 257.2 309.2C300 304.3 343 280.7 385.8 286.7C428.7 292.7 471.3 328.3 514.2 349.2C557 370 600 376 642.8 361C685.7 346 728.3 310 771.2 310.5C814 311 857 348 878.5 366.5L900 385L900 601L878.5 601C857 601 814 601 771.2 601C728.3 601 685.7 601 642.8 601C600 601 557 601 514.2 601C471.3 601 428.7 601 385.8 601C343 601 300 601 257.2 601C214.3 601 171.7 601 128.8 601C86 601 43 601 21.5 601L0 601Z" fill="#3a7582"></path><path d="M0 329L21.5 332.5C43 336 86 343 128.8 348.7C171.7 354.3 214.3 358.7 257.2 365.3C300 372 343 381 385.8 388.8C428.7 396.7 471.3 403.3 514.2 397.3C557 391.3 600 372.7 642.8 358C685.7 343.3 728.3 332.7 771.2 329.7C814 326.7 857 331.3 878.5 333.7L900 336L900 601L878.5 601C857 601 814 601 771.2 601C728.3 601 685.7 601 642.8 601C600 601 557 601 514.2 601C471.3 601 428.7 601 385.8 601C343 601 300 601 257.2 601C214.3 601 171.7 601 128.8 601C86 601 43 601 21.5 601L0 601Z" fill="#588d99"></path><path d="M0 437L21.5 435C43 433 86 429 128.8 435.3C171.7 441.7 214.3 458.3 257.2 465.8C300 473.3 343 471.7 385.8 470.7C428.7 469.7 471.3 469.3 514.2 467.8C557 466.3 600 463.7 642.8 456.2C685.7 448.7 728.3 436.3 771.2 422.5C814 408.7 857 393.3 878.5 385.7L900 378L900 601L878.5 601C857 601 814 601 771.2 601C728.3 601 685.7 601 642.8 601C600 601 557 601 514.2 601C471.3 601 428.7 601 385.8 601C343 601 300 601 257.2 601C214.3 601 171.7 601 128.8 601C86 601 43 601 21.5 601L0 601Z" fill="#75a5b0"></path><path d="M0 440L21.5 446C43 452 86 464 128.8 465.5C171.7 467 214.3 458 257.2 460C300 462 343 475 385.8 475.2C428.7 475.3 471.3 462.7 514.2 463C557 463.3 600 476.7 642.8 478.2C685.7 479.7 728.3 469.3 771.2 464C814 458.7 857 458.3 878.5 458.2L900 458L900 601L878.5 601C857 601 814 601 771.2 601C728.3 601 685.7 601 642.8 601C600 601 557 601 514.2 601C471.3 601 428.7 601 385.8 601C343 601 300 601 257.2 601C214.3 601 171.7 601 128.8 601C86 601 43 601 21.5 601L0 601Z" fill="#92bec8"></path><path d="M0 494L21.5 497.8C43 501.7 86 509.3 128.8 513.2C171.7 517 214.3 517 257.2 523.5C300 530 343 543 385.8 547C428.7 551 471.3 546 514.2 546.3C557 546.7 600 552.3 642.8 552C685.7 551.7 728.3 545.3 771.2 544.7C814 544 857 549 878.5 551.5L900 554L900 601L878.5 601C857 601 814 601 771.2 601C728.3 601 685.7 601 642.8 601C600 601 557 601 514.2 601C471.3 601 428.7 601 385.8 601C343 601 300 601 257.2 601C214.3 601 171.7 601 128.8 601C86 601 43 601 21.5 601L0 601Z" fill="#afd7e0"></path></svg>