<svg id="visual" viewBox="0 0 900 600" width="900" height="600" xmlns="http://www.w3.org/2000/svg" xmlns:xlink="http://www.w3.org/1999/xlink" version="1.1"><path d="M0 390L21.5 389C43 388 86 386 128.8 391.5C171.7 397 214.3 410 257.2 417.5C300 425 343 427 385.8 419C428.7 411 471.3 393 514.2 386.7C557 380.3 600 385.7 642.8 391.8C685.7 398 728.3 405 771.2 400.7C814 396.3 857 380.7 878.5 372.8L900 365L900 601L878.5 601C857 601 814 601 771.2 601C728.3 601 685.7 601 642.8 601C600 601 557 601 514.2 601C471.3 601 428.7 601 385.8 601C343 601 300 601 257.2 601C214.3 601 171.7 601 128.8 601C86 601 43 601 21.5 601L0 601Z" fill="#3a7582"></path><path d="M0 418L21.5 416.7C43 415.3 86 412.7 128.8 415.3C171.7 418 214.3 426 257.2 437C300 448 343 462 385.8 456.5C428.7 451 471.3 426 514.2 419.2C557 412.3 600 423.7 642.8 432.7C685.7 441.7 728.3 448.3 771.2 446.8C814 445.3 857 435.7 878.5 430.8L900 426L900 601L878.5 601C857 601 814 601 771.2 601C728.3 601 685.7 601 642.8 601C600 601 557 601 514.2 601C471.3 601 428.7 601 385.8 601C343 601 300 601 257.2 601C214.3 601 171.7 601 128.8 601C86 601 43 601 21.5 601L0 601Z" fill="#588d99"></path><path d="M0 468L21.5 472.7C43 477.3 86 486.7 128.8 483C171.7 479.3 214.3 462.7 257.2 458.8C300 455 343 464 385.8 473.5C428.7 483 471.3 493 514.2 498.3C557 503.7 600 504.3 642.8 500.5C685.7 496.7 728.3 488.3 771.2 488.5C814 488.7 857 497.3 878.5 501.7L900 506L900 601L878.5 601C857 601 814 601 771.2 601C728.3 601 685.7 601 642.8 601C600 601 557 601 514.2 601C471.3 601 428.7 601 385.8 601C343 601 300 601 257.2 601C214.3 601 171.7 601 128.8 601C86 601 43 601 21.5 601L0 601Z" fill="#75a5b0"></path><path d="M0 485L21.5 485.8C43 486.7 86 488.3 128.8 490C171.7 491.7 214.3 493.3 257.2 500.5C300 507.7 343 520.3 385.8 521.3C428.7 522.3 471.3 511.7 514.2 509.7C557 507.7 600 514.3 642.8 510.8C685.7 507.3 728.3 493.7 771.2 494.8C814 496 857 512 878.5 520L900 528L900 601L878.5 601C857 601 814 601 771.2 601C728.3 601 685.7 601 642.8 601C600 601 557 601 514.2 601C471.3 601 428.7 601 385.8 601C343 601 300 601 257.2 601C214.3 601 171.7 601 128.8 601C86 601 43 601 21.5 601L0 601Z" fill="#92bec8"></path><path d="M0 550L21.5 548C43 546 86 542 128.8 545.2C171.7 548.3 214.3 558.7 257.2 559.5C300 560.3 343 551.7 385.8 546.2C428.7 540.7 471.3 538.3 514.2 543.2C557 548 600 560 642.8 561C685.7 562 728.3 552 771.2 552.3C814 552.7 857 563.3 878.5 568.7L900 574L900 601L878.5 601C857 601 814 601 771.2 601C728.3 601 685.7 601 642.8 601C600 601 557 601 514.2 601C471.3 601 428.7 601 385.8 601C343 601 300 601 257.2 601C214.3 601 171.7 601 128.8 601C86 601 43 601 21.5 601L0 601Z" fill="#afd7e0"></path></svg>